<mxfile host="app.diagrams.net" modified="2020-10-16T09:39:24.540Z" agent="5.0 (Windows NT 10.0; Win64; x64) AppleWebKit/537.36 (KHTML, like Gecko) Chrome/86.0.4240.75 Safari/537.36" etag="WqraFmcJVJg3MQHNxgZe" version="13.8.0" type="github">
  <diagram id="A1JgUmCUFF9uFWXedutz" name="Page-1">
    <mxGraphModel dx="1095" dy="448" grid="1" gridSize="10" guides="1" tooltips="1" connect="1" arrows="1" fold="1" page="1" pageScale="1" pageWidth="1169" pageHeight="827" math="0" shadow="0">
      <root>
        <mxCell id="0" />
        <mxCell id="1" parent="0" />
        <mxCell id="jFJJfG664hvmAsr5JOJt-5" style="edgeStyle=orthogonalEdgeStyle;rounded=0;orthogonalLoop=1;jettySize=auto;html=1;entryX=0.5;entryY=0;entryDx=0;entryDy=0;exitX=0.5;exitY=1;exitDx=0;exitDy=0;" parent="1" source="jFJJfG664hvmAsr5JOJt-14" target="jFJJfG664hvmAsr5JOJt-24" edge="1">
          <mxGeometry relative="1" as="geometry">
            <mxPoint x="710" y="563.5" as="sourcePoint" />
            <Array as="points">
              <mxPoint x="1015" y="112" />
              <mxPoint x="1015" y="200" />
              <mxPoint x="580" y="200" />
            </Array>
          </mxGeometry>
        </mxCell>
        <mxCell id="jFJJfG664hvmAsr5JOJt-10" style="edgeStyle=orthogonalEdgeStyle;rounded=0;orthogonalLoop=1;jettySize=auto;html=1;entryX=0.5;entryY=0;entryDx=0;entryDy=0;" parent="1" source="jFJJfG664hvmAsr5JOJt-31" target="jFJJfG664hvmAsr5JOJt-24" edge="1">
          <mxGeometry relative="1" as="geometry">
            <Array as="points">
              <mxPoint x="640" y="200" />
              <mxPoint x="580" y="200" />
            </Array>
          </mxGeometry>
        </mxCell>
        <mxCell id="jFJJfG664hvmAsr5JOJt-11" style="edgeStyle=orthogonalEdgeStyle;rounded=0;orthogonalLoop=1;jettySize=auto;html=1;entryX=0.5;entryY=0;entryDx=0;entryDy=0;" parent="1" source="jFJJfG664hvmAsr5JOJt-12" target="jFJJfG664hvmAsr5JOJt-24" edge="1">
          <mxGeometry relative="1" as="geometry">
            <Array as="points">
              <mxPoint x="465" y="200" />
              <mxPoint x="580" y="200" />
            </Array>
          </mxGeometry>
        </mxCell>
        <mxCell id="jFJJfG664hvmAsr5JOJt-12" value="Boundary Conditions" style="shape=parallelogram;perimeter=parallelogramPerimeter;whiteSpace=wrap;html=1;fixedSize=1;rounded=1;" parent="1" vertex="1">
          <mxGeometry x="420" y="60" width="100" height="50" as="geometry" />
        </mxCell>
        <mxCell id="jFJJfG664hvmAsr5JOJt-14" value="Buildings" style="shape=parallelogram;perimeter=parallelogramPerimeter;whiteSpace=wrap;html=1;fixedSize=1;rounded=1;" parent="1" vertex="1">
          <mxGeometry x="970" y="65.25" width="100" height="46.5" as="geometry" />
        </mxCell>
        <mxCell id="jFJJfG664hvmAsr5JOJt-18" style="edgeStyle=orthogonalEdgeStyle;rounded=0;orthogonalLoop=1;jettySize=auto;html=1;entryX=0.5;entryY=0;entryDx=0;entryDy=0;exitX=0.5;exitY=1;exitDx=0;exitDy=0;" parent="1" source="jFJJfG664hvmAsr5JOJt-19" target="jFJJfG664hvmAsr5JOJt-24" edge="1">
          <mxGeometry relative="1" as="geometry">
            <Array as="points">
              <mxPoint x="135" y="110" />
              <mxPoint x="135" y="200" />
              <mxPoint x="580" y="200" />
            </Array>
          </mxGeometry>
        </mxCell>
        <mxCell id="jFJJfG664hvmAsr5JOJt-19" value="Friction&amp;nbsp;" style="shape=parallelogram;perimeter=parallelogramPerimeter;whiteSpace=wrap;html=1;fixedSize=1;rounded=1;" parent="1" vertex="1">
          <mxGeometry x="90" y="60" width="100" height="50" as="geometry" />
        </mxCell>
        <mxCell id="jFJJfG664hvmAsr5JOJt-23" style="edgeStyle=orthogonalEdgeStyle;rounded=0;orthogonalLoop=1;jettySize=auto;html=1;entryX=0.5;entryY=0;entryDx=0;entryDy=0;" parent="1" source="jFJJfG664hvmAsr5JOJt-24" target="jFJJfG664hvmAsr5JOJt-33" edge="1">
          <mxGeometry relative="1" as="geometry" />
        </mxCell>
        <mxCell id="jFJJfG664hvmAsr5JOJt-24" value="City Catchment Analysis Tool" style="rounded=1;whiteSpace=wrap;html=1;fontSize=12;glass=0;strokeWidth=1;shadow=0;" parent="1" vertex="1">
          <mxGeometry x="520" y="280" width="120" height="50" as="geometry" />
        </mxCell>
        <mxCell id="jFJJfG664hvmAsr5JOJt-26" value="Rainfall" style="shape=parallelogram;perimeter=parallelogramPerimeter;whiteSpace=wrap;html=1;fixedSize=1;rounded=1;" parent="1" vertex="1">
          <mxGeometry x="790" y="63.75" width="100" height="46.5" as="geometry" />
        </mxCell>
        <mxCell id="jFJJfG664hvmAsr5JOJt-27" value="Dataset" style="shape=parallelogram;perimeter=parallelogramPerimeter;whiteSpace=wrap;html=1;fixedSize=1;rounded=1;" parent="1" vertex="1">
          <mxGeometry x="145" y="425" width="90" height="40" as="geometry" />
        </mxCell>
        <mxCell id="jFJJfG664hvmAsr5JOJt-28" value="Model" style="rounded=1;whiteSpace=wrap;html=1;fontSize=12;glass=0;strokeWidth=1;shadow=0;" parent="1" vertex="1">
          <mxGeometry x="260" y="430" width="80" height="30" as="geometry" />
        </mxCell>
        <mxCell id="jFJJfG664hvmAsr5JOJt-29" style="edgeStyle=orthogonalEdgeStyle;rounded=0;orthogonalLoop=1;jettySize=auto;html=1;entryX=0.5;entryY=0;entryDx=0;entryDy=0;" parent="1" source="jFJJfG664hvmAsr5JOJt-30" target="jFJJfG664hvmAsr5JOJt-24" edge="1">
          <mxGeometry relative="1" as="geometry">
            <Array as="points">
              <mxPoint x="285" y="200" />
              <mxPoint x="580" y="200" />
            </Array>
          </mxGeometry>
        </mxCell>
        <mxCell id="jFJJfG664hvmAsr5JOJt-30" value="Infiltration" style="shape=parallelogram;perimeter=parallelogramPerimeter;whiteSpace=wrap;html=1;fixedSize=1;rounded=1;" parent="1" vertex="1">
          <mxGeometry x="240" y="60" width="100" height="50" as="geometry" />
        </mxCell>
        <mxCell id="jFJJfG664hvmAsr5JOJt-33" value="Water Depth &amp;amp; Velocity" style="shape=parallelogram;perimeter=parallelogramPerimeter;whiteSpace=wrap;html=1;fixedSize=1;rounded=1;" parent="1" vertex="1">
          <mxGeometry x="520" y="385" width="120" height="45" as="geometry" />
        </mxCell>
        <mxCell id="jFJJfG664hvmAsr5JOJt-31" value="Topography" style="shape=parallelogram;perimeter=parallelogramPerimeter;whiteSpace=wrap;html=1;fixedSize=1;rounded=1;" parent="1" vertex="1">
          <mxGeometry x="600" y="63.5" width="100" height="50" as="geometry" />
        </mxCell>
        <mxCell id="jFJJfG664hvmAsr5JOJt-37" style="edgeStyle=orthogonalEdgeStyle;rounded=0;orthogonalLoop=1;jettySize=auto;html=1;entryX=0.5;entryY=0;entryDx=0;entryDy=0;exitX=0.5;exitY=1;exitDx=0;exitDy=0;" parent="1" source="jFJJfG664hvmAsr5JOJt-26" target="jFJJfG664hvmAsr5JOJt-24" edge="1">
          <mxGeometry relative="1" as="geometry">
            <mxPoint x="835" y="110" as="sourcePoint" />
            <mxPoint x="580" y="303.5" as="targetPoint" />
            <Array as="points">
              <mxPoint x="835" y="110" />
              <mxPoint x="835" y="200" />
              <mxPoint x="580" y="200" />
            </Array>
          </mxGeometry>
        </mxCell>
        <mxCell id="bX2RWGeR6Sdyeh37-ABp-10" style="edgeStyle=orthogonalEdgeStyle;rounded=0;orthogonalLoop=1;jettySize=auto;html=1;entryX=0;entryY=0.5;entryDx=0;entryDy=0;" edge="1" parent="1" source="bX2RWGeR6Sdyeh37-ABp-9" target="jFJJfG664hvmAsr5JOJt-24">
          <mxGeometry relative="1" as="geometry" />
        </mxCell>
        <mxCell id="bX2RWGeR6Sdyeh37-ABp-9" value="Configuration" style="shape=parallelogram;perimeter=parallelogramPerimeter;whiteSpace=wrap;html=1;fixedSize=1;rounded=1;" vertex="1" parent="1">
          <mxGeometry x="320" y="280" width="100" height="50" as="geometry" />
        </mxCell>
        <mxCell id="bX2RWGeR6Sdyeh37-ABp-14" value="* CityCAT Vector is a text file formatted like:&lt;br&gt;{number of polygons}&lt;br&gt;{number of points} {optional attribute} {x1} {x2} {x3} {y1} {y2} {y3} ...&lt;br&gt;{number of points} {optional attribute} {x4} {x5} {x6} {x7} {y4} {y5} {y6} {y7} ...&lt;br&gt;..." style="text;html=1;align=left;verticalAlign=middle;resizable=0;points=[];autosize=1;" vertex="1" parent="1">
          <mxGeometry x="400" y="740" width="420" height="80" as="geometry" />
        </mxCell>
        <mxCell id="qpgoH7Dkkdjb4YdEsGVw-1" value="" style="shape=table;html=1;whiteSpace=wrap;startSize=0;container=1;collapsible=0;childLayout=tableLayout;spacingTop=0;rowLines=0;" parent="1" vertex="1">
          <mxGeometry x="328" y="520" width="513" height="190" as="geometry" />
        </mxCell>
        <mxCell id="qpgoH7Dkkdjb4YdEsGVw-2" value="" style="shape=partialRectangle;html=1;whiteSpace=wrap;collapsible=0;dropTarget=0;pointerEvents=0;fillColor=none;top=0;left=0;bottom=0;right=0;points=[[0,0.5],[1,0.5]];portConstraint=eastwest;perimeterSpacing=2;strokeWidth=5;" parent="qpgoH7Dkkdjb4YdEsGVw-1" vertex="1">
          <mxGeometry width="513" height="30" as="geometry" />
        </mxCell>
        <mxCell id="qpgoH7Dkkdjb4YdEsGVw-3" value="&lt;b&gt;Dataset&lt;/b&gt;" style="shape=partialRectangle;html=1;whiteSpace=wrap;connectable=0;fillColor=none;top=0;left=0;bottom=1;right=0;overflow=hidden;" parent="qpgoH7Dkkdjb4YdEsGVw-2" vertex="1">
          <mxGeometry width="257" height="30" as="geometry" />
        </mxCell>
        <mxCell id="qpgoH7Dkkdjb4YdEsGVw-4" value="&lt;b&gt;Format&lt;/b&gt;" style="shape=partialRectangle;html=1;whiteSpace=wrap;connectable=0;fillColor=none;top=0;left=0;bottom=1;right=0;overflow=hidden;sketch=0;" parent="qpgoH7Dkkdjb4YdEsGVw-2" vertex="1">
          <mxGeometry x="257" width="256" height="30" as="geometry" />
        </mxCell>
        <mxCell id="bX2RWGeR6Sdyeh37-ABp-11" style="shape=partialRectangle;html=1;whiteSpace=wrap;collapsible=0;dropTarget=0;pointerEvents=0;fillColor=none;top=0;left=0;bottom=0;right=0;points=[[0,0.5],[1,0.5]];portConstraint=eastwest;strokeColor=none;" vertex="1" parent="qpgoH7Dkkdjb4YdEsGVw-1">
          <mxGeometry y="30" width="513" height="20" as="geometry" />
        </mxCell>
        <mxCell id="bX2RWGeR6Sdyeh37-ABp-12" value="Configuration" style="shape=partialRectangle;html=1;whiteSpace=wrap;connectable=0;fillColor=none;top=0;left=0;bottom=0;right=0;overflow=hidden;strokeColor=none;" vertex="1" parent="bX2RWGeR6Sdyeh37-ABp-11">
          <mxGeometry width="257" height="20" as="geometry" />
        </mxCell>
        <mxCell id="bX2RWGeR6Sdyeh37-ABp-13" value="XML" style="shape=partialRectangle;html=1;whiteSpace=wrap;connectable=0;fillColor=none;top=0;left=0;bottom=0;right=0;overflow=hidden;strokeColor=none;" vertex="1" parent="bX2RWGeR6Sdyeh37-ABp-11">
          <mxGeometry x="257" width="256" height="20" as="geometry" />
        </mxCell>
        <mxCell id="qpgoH7Dkkdjb4YdEsGVw-6" value="" style="shape=partialRectangle;html=1;whiteSpace=wrap;collapsible=0;dropTarget=0;pointerEvents=0;fillColor=none;top=0;left=0;bottom=0;right=0;points=[[0,0.5],[1,0.5]];portConstraint=eastwest;strokeColor=none;" parent="qpgoH7Dkkdjb4YdEsGVw-1" vertex="1">
          <mxGeometry y="50" width="513" height="20" as="geometry" />
        </mxCell>
        <mxCell id="qpgoH7Dkkdjb4YdEsGVw-7" value="Friction" style="shape=partialRectangle;html=1;whiteSpace=wrap;connectable=0;fillColor=none;top=0;left=0;bottom=0;right=0;overflow=hidden;strokeColor=none;" parent="qpgoH7Dkkdjb4YdEsGVw-6" vertex="1">
          <mxGeometry width="257" height="20" as="geometry" />
        </mxCell>
        <mxCell id="qpgoH7Dkkdjb4YdEsGVw-8" value="CityCAT Vector* and/or XML" style="shape=partialRectangle;html=1;whiteSpace=wrap;connectable=0;fillColor=none;top=0;left=0;bottom=0;right=0;overflow=hidden;strokeColor=none;" parent="qpgoH7Dkkdjb4YdEsGVw-6" vertex="1">
          <mxGeometry x="257" width="256" height="20" as="geometry" />
        </mxCell>
        <mxCell id="qpgoH7Dkkdjb4YdEsGVw-10" value="" style="shape=partialRectangle;html=1;whiteSpace=wrap;collapsible=0;dropTarget=0;pointerEvents=0;fillColor=none;top=0;left=0;bottom=0;right=0;points=[[0,0.5],[1,0.5]];portConstraint=eastwest;strokeColor=none;" parent="qpgoH7Dkkdjb4YdEsGVw-1" vertex="1">
          <mxGeometry y="70" width="513" height="20" as="geometry" />
        </mxCell>
        <mxCell id="qpgoH7Dkkdjb4YdEsGVw-11" value="Infiltration" style="shape=partialRectangle;html=1;whiteSpace=wrap;connectable=0;fillColor=none;top=0;left=0;bottom=0;right=0;overflow=hidden;strokeColor=none;" parent="qpgoH7Dkkdjb4YdEsGVw-10" vertex="1">
          <mxGeometry width="257" height="20" as="geometry" />
        </mxCell>
        <mxCell id="qpgoH7Dkkdjb4YdEsGVw-12" value="CityCAT Vector* and XML" style="shape=partialRectangle;html=1;whiteSpace=wrap;connectable=0;fillColor=none;top=0;left=0;bottom=0;right=0;overflow=hidden;strokeColor=none;" parent="qpgoH7Dkkdjb4YdEsGVw-10" vertex="1">
          <mxGeometry x="257" width="256" height="20" as="geometry" />
        </mxCell>
        <mxCell id="qpgoH7Dkkdjb4YdEsGVw-26" style="shape=partialRectangle;html=1;whiteSpace=wrap;collapsible=0;dropTarget=0;pointerEvents=0;fillColor=none;top=0;left=0;bottom=0;right=0;points=[[0,0.5],[1,0.5]];portConstraint=eastwest;strokeColor=none;" parent="qpgoH7Dkkdjb4YdEsGVw-1" vertex="1">
          <mxGeometry y="90" width="513" height="20" as="geometry" />
        </mxCell>
        <mxCell id="qpgoH7Dkkdjb4YdEsGVw-27" value="Boundary Conditions" style="shape=partialRectangle;html=1;whiteSpace=wrap;connectable=0;fillColor=none;top=0;left=0;bottom=0;right=0;overflow=hidden;strokeColor=none;" parent="qpgoH7Dkkdjb4YdEsGVw-26" vertex="1">
          <mxGeometry width="257" height="20" as="geometry" />
        </mxCell>
        <mxCell id="qpgoH7Dkkdjb4YdEsGVw-28" value="CityCAT Vector* and CSV" style="shape=partialRectangle;html=1;whiteSpace=wrap;connectable=0;fillColor=none;top=0;left=0;bottom=0;right=0;overflow=hidden;strokeColor=none;" parent="qpgoH7Dkkdjb4YdEsGVw-26" vertex="1">
          <mxGeometry x="257" width="256" height="20" as="geometry" />
        </mxCell>
        <mxCell id="qpgoH7Dkkdjb4YdEsGVw-23" style="shape=partialRectangle;html=1;whiteSpace=wrap;collapsible=0;dropTarget=0;pointerEvents=0;fillColor=none;top=0;left=0;bottom=0;right=0;points=[[0,0.5],[1,0.5]];portConstraint=eastwest;strokeColor=none;" parent="qpgoH7Dkkdjb4YdEsGVw-1" vertex="1">
          <mxGeometry y="110" width="513" height="20" as="geometry" />
        </mxCell>
        <mxCell id="qpgoH7Dkkdjb4YdEsGVw-24" value="Topography" style="shape=partialRectangle;html=1;whiteSpace=wrap;connectable=0;fillColor=none;top=0;left=0;bottom=0;right=0;overflow=hidden;strokeColor=none;" parent="qpgoH7Dkkdjb4YdEsGVw-23" vertex="1">
          <mxGeometry width="257" height="20" as="geometry" />
        </mxCell>
        <mxCell id="qpgoH7Dkkdjb4YdEsGVw-25" value="Arc/Info ASCII Grid" style="shape=partialRectangle;html=1;whiteSpace=wrap;connectable=0;fillColor=none;top=0;left=0;bottom=0;right=0;overflow=hidden;strokeColor=none;" parent="qpgoH7Dkkdjb4YdEsGVw-23" vertex="1">
          <mxGeometry x="257" width="256" height="20" as="geometry" />
        </mxCell>
        <mxCell id="qpgoH7Dkkdjb4YdEsGVw-20" style="shape=partialRectangle;html=1;whiteSpace=wrap;collapsible=0;dropTarget=0;pointerEvents=0;fillColor=none;top=0;left=0;bottom=0;right=0;points=[[0,0.5],[1,0.5]];portConstraint=eastwest;strokeColor=none;" parent="qpgoH7Dkkdjb4YdEsGVw-1" vertex="1">
          <mxGeometry y="130" width="513" height="20" as="geometry" />
        </mxCell>
        <mxCell id="qpgoH7Dkkdjb4YdEsGVw-21" value="Rainfall" style="shape=partialRectangle;html=1;whiteSpace=wrap;connectable=0;fillColor=none;top=0;left=0;bottom=0;right=0;overflow=hidden;strokeColor=none;" parent="qpgoH7Dkkdjb4YdEsGVw-20" vertex="1">
          <mxGeometry width="257" height="20" as="geometry" />
        </mxCell>
        <mxCell id="qpgoH7Dkkdjb4YdEsGVw-22" value="CityCAT Vector* and CSV" style="shape=partialRectangle;html=1;whiteSpace=wrap;connectable=0;fillColor=none;top=0;left=0;bottom=0;right=0;overflow=hidden;strokeColor=none;" parent="qpgoH7Dkkdjb4YdEsGVw-20" vertex="1">
          <mxGeometry x="257" width="256" height="20" as="geometry" />
        </mxCell>
        <mxCell id="qpgoH7Dkkdjb4YdEsGVw-17" style="shape=partialRectangle;html=1;whiteSpace=wrap;collapsible=0;dropTarget=0;pointerEvents=0;fillColor=none;top=0;left=0;bottom=0;right=0;points=[[0,0.5],[1,0.5]];portConstraint=eastwest;strokeColor=none;" parent="qpgoH7Dkkdjb4YdEsGVw-1" vertex="1">
          <mxGeometry y="150" width="513" height="20" as="geometry" />
        </mxCell>
        <mxCell id="qpgoH7Dkkdjb4YdEsGVw-18" value="Buildings" style="shape=partialRectangle;html=1;whiteSpace=wrap;connectable=0;fillColor=none;top=0;left=0;bottom=0;right=0;overflow=hidden;strokeColor=none;" parent="qpgoH7Dkkdjb4YdEsGVw-17" vertex="1">
          <mxGeometry width="257" height="20" as="geometry" />
        </mxCell>
        <mxCell id="qpgoH7Dkkdjb4YdEsGVw-19" value="CityCAT Vector*" style="shape=partialRectangle;html=1;whiteSpace=wrap;connectable=0;fillColor=none;top=0;left=0;bottom=0;right=0;overflow=hidden;strokeColor=none;" parent="qpgoH7Dkkdjb4YdEsGVw-17" vertex="1">
          <mxGeometry x="257" width="256" height="20" as="geometry" />
        </mxCell>
        <mxCell id="qpgoH7Dkkdjb4YdEsGVw-14" style="shape=partialRectangle;html=1;whiteSpace=wrap;collapsible=0;dropTarget=0;pointerEvents=0;fillColor=none;top=0;left=0;bottom=0;right=0;points=[[0,0.5],[1,0.5]];portConstraint=eastwest;strokeColor=none;" parent="qpgoH7Dkkdjb4YdEsGVw-1" vertex="1">
          <mxGeometry y="170" width="513" height="20" as="geometry" />
        </mxCell>
        <mxCell id="qpgoH7Dkkdjb4YdEsGVw-15" value="Water Depth &amp;amp; Velocity" style="shape=partialRectangle;html=1;whiteSpace=wrap;connectable=0;fillColor=none;top=0;left=0;bottom=0;right=0;overflow=hidden;strokeColor=none;" parent="qpgoH7Dkkdjb4YdEsGVw-14" vertex="1">
          <mxGeometry width="257" height="20" as="geometry" />
        </mxCell>
        <mxCell id="qpgoH7Dkkdjb4YdEsGVw-16" value="Ungridded XYZ" style="shape=partialRectangle;html=1;whiteSpace=wrap;connectable=0;fillColor=none;top=0;left=0;bottom=0;right=0;overflow=hidden;strokeColor=none;" parent="qpgoH7Dkkdjb4YdEsGVw-14" vertex="1">
          <mxGeometry x="257" width="256" height="20" as="geometry" />
        </mxCell>
      </root>
    </mxGraphModel>
  </diagram>
</mxfile>
